# xmcd CD database file
#
# Track frame offsets:
#	150
#	45498
#	68421
#	103794
#	128592
#	168315
#	193863
#	219111
#	259509
#
# Disc length: 3839 seconds
#
# Revision: 0
# Processed by: cddbd v1.5.2PL0 Copyright (c) Steve Scherf et al.
# Submitted via: CDex 1.70beta2
#
DISCID=700efd09
DTITLE=Shauli Einav - Home Seek
DYEAR=2008
DGENRE=Jazz
TTITLE0=Mahmad Levavi
TTITLE1=Shavu'ot
TTITLE2=Dedicated To You
TTITLE3=Ellisate
TTITLE4=Lake Effect
TTITLE5=Until Yesterday
TTITLE6=Thermo Blues
TTITLE7=Mr. Luckey
TTITLE8=Home Seek
EXTD=YEAR: 2008
EXTT0=
EXTT1=
EXTT2=
EXTT3=
EXTT4=
EXTT5=
EXTT6=
EXTT7=
EXTT8=
PLAYORDER=
